<?xml version="1.0" encoding="UTF-8"?>
<svg id="Layer_2" data-name="Layer 2" xmlns="http://www.w3.org/2000/svg" xmlns:xlink="http://www.w3.org/1999/xlink" viewBox="0 0 372.88 102.97">
  <defs>
    <style>
      .cls-1 {
        fill: url(#linear-gradient);
      }

      .cls-2 {
        fill: #0b0d16;
      }

      .cls-3 {
        fill: url(#linear-gradient-2);
      }
    </style>
    <linearGradient id="linear-gradient" x1="0" y1="51.49" x2="102.97" y2="51.49" gradientUnits="userSpaceOnUse">
      <stop offset="0" stop-color="#2944cc"/>
      <stop offset=".16" stop-color="#2461c6"/>
      <stop offset=".52" stop-color="#17acb9"/>
      <stop offset=".87" stop-color="#0bfcac"/>
    </linearGradient>
    <linearGradient id="linear-gradient-2" x1="52.39" y1="104.61" x2="-31.06" y2="18.78" gradientUnits="userSpaceOnUse">
      <stop offset=".27" stop-color="#5d0772"/>
      <stop offset=".28" stop-color="#5a0976"/>
      <stop offset=".37" stop-color="#4824a2"/>
      <stop offset=".46" stop-color="#3a37c2"/>
      <stop offset=".53" stop-color="#3243d6"/>
      <stop offset=".58" stop-color="#2f48dd"/>
    </linearGradient>
  </defs>
  <g id="Logos">
    <g>
      <g>
        <path class="cls-2" d="m205.89,34.14c-2.48-1.21-5.27-1.81-8.37-1.81-3.8,0-7.15.91-10.02,2.73-1.38.88-2.61,1.92-3.67,3.12-.9-1.29-2-2.35-3.31-3.19-2.78-1.77-5.97-2.66-9.57-2.66-3.2,0-6.11.72-8.71,2.16-1.06.59-2.04,1.31-2.93,2.15v-3.6h-16.14v38.83h16.97v-18.95c0-1.75.24-3.13.71-4.15.48-1.02,1.11-1.76,1.91-2.24.8-.47,1.7-.71,2.7-.71,1.45,0,2.58.51,3.38,1.53.8,1.02,1.2,2.73,1.2,5.15v19.38h16.97v-18.95c0-1.75.24-3.13.71-4.15.48-1.02,1.11-1.76,1.91-2.24.8-.47,1.7-.71,2.7-.71,1.35,0,2.45.51,3.3,1.53.85,1.02,1.28,2.73,1.28,5.15v19.38h16.97v-22.15c0-4.07-.71-7.38-2.14-9.94-1.43-2.56-3.38-4.44-5.86-5.64Z"/>
        <path class="cls-2" d="m245.27,53.86l-8.48-20.82h-17.42l17.29,39.28c-.24.27-.5.51-.77.72-.8.59-1.95.89-3.45.89-1,0-2.04-.19-3.12-.57-1.08-.38-2.04-.88-2.89-1.49l-5.63,11c1.4,1.04,3.27,1.88,5.59,2.52,2.33.64,4.62.96,6.87.96,2.9,0,5.57-.4,8-1.21,2.43-.81,4.63-2.2,6.61-4.19,1.98-1.99,3.72-4.76,5.22-8.3l16.89-39.61h-16.07l-8.64,20.82Z"/>
        <path class="cls-2" d="m311.22,34.14c-2.41-1.21-5.11-1.81-8.09-1.81-3.17,0-6.05.73-8.62,2.2-1.13.64-2.16,1.43-3.09,2.36v-3.85h-15.26v38.83h16.04v-18.24c0-1.94.27-3.48.82-4.61.54-1.14,1.28-1.95,2.2-2.45s1.93-.75,3.02-.75c1.47,0,2.63.51,3.48,1.53.85,1.02,1.28,2.73,1.28,5.15v19.38h16.04v-22.15c0-4.07-.7-7.38-2.09-9.94-1.4-2.56-3.3-4.44-5.71-5.64Z"/>
        <path class="cls-2" d="m355.91,19.2v16.49c-.49-.44-1.02-.84-1.58-1.19-2.3-1.44-5.26-2.16-8.86-2.16s-6.85.81-9.87,2.41c-3.03,1.61-5.44,3.92-7.25,6.92-1.8,3.01-2.7,6.59-2.7,10.75s.9,7.75,2.7,10.75c1.8,3.01,4.22,5.32,7.25,6.96,3.03,1.63,6.32,2.45,9.87,2.45,3.8,0,6.84-.71,9.12-2.13.79-.49,1.5-1.08,2.14-1.76v3.18h16.14V19.2h-16.97Zm-.6,37.44c-.6,1.16-1.4,2.02-2.4,2.59-1,.57-2.13.85-3.38.85s-2.38-.28-3.38-.85c-1-.57-1.8-1.43-2.4-2.59-.6-1.16-.9-2.57-.9-4.22s.3-3.11.9-4.22c.6-1.11,1.4-1.95,2.4-2.52,1-.57,2.13-.85,3.38-.85s2.38.28,3.38.85c1,.57,1.8,1.41,2.4,2.52.6,1.11.9,2.52.9,4.22s-.3,3.06-.9,4.22Z"/>
      </g>
      <g>
        <path class="cls-1" d="m102.97,0l-.23,52.11c-.12,28.13-22.86,50.86-50.86,50.86H0S102.97,0,102.97,0Z"/>
        <path class="cls-3" d="m51.51,51.46L.07.04l-.07,102.92c.23,0,.55,0,.75,0l50.76-51.51Z"/>
      </g>
    </g>
  </g>
</svg>