<?xml version="1.0" standalone="no"?>
<!DOCTYPE svg PUBLIC "-//W3C//DTD SVG 20010904//EN"
 "http://www.w3.org/TR/2001/REC-SVG-20010904/DTD/svg10.dtd">
<svg version="1.0" xmlns="http://www.w3.org/2000/svg" viewBox="0 0 512.000000 512.000000"
 preserveAspectRatio="xMidYMid meet">

<g transform="translate(0.000000,512.000000) scale(0.100000,-0.100000)" stroke="none">
<path d="M3460 5103 c-38 -13 -122 -93 -575 -544 l-530 -528 -42 40 c-34 31
-50 39 -80 39 -37 0 -55 -17 -564 -527 l-527 -528 -211 -635 c-116 -349 -211
-648 -211 -665 0 -24 18 -48 102 -132 l102 -103 -126 -127 c-153 -156 -170
-196 -132 -309 l16 -47 -341 -341 c-352 -352 -356 -358 -330 -409 16 -31 239
-256 271 -273 15 -8 37 -14 50 -14 16 0 116 94 364 341 l341 341 47 -16 c113
-38 153 -21 309 132 l127 126 103 -102 c84 -84 108 -102 132 -102 17 0 316 95
665 211 l635 211 528 527 c510 509 527 527 527 564 0 30 -8 46 -39 80 l-40 42
528 530 c476 478 530 535 545 579 21 65 20 115 -4 178 -18 48 -87 120 -712
746 -630 629 -698 694 -746 712 -62 23 -120 24 -182 3z m202 -230 l68 -67
-220 -221 c-212 -213 -220 -222 -220 -260 0 -39 10 -49 498 -537 488 -488 498
-498 537 -498 38 0 47 8 260 220 l221 220 66 -68 c74 -74 87 -105 64 -148 -8
-16 -242 -256 -520 -534 l-506 -505 -237 237 -238 238 156 157 c164 166 181
192 155 241 -22 40 -377 389 -408 401 -19 7 -37 7 -55 0 -16 -5 -97 -78 -181
-162 l-152 -152 -238 238 -237 237 500 501 c275 276 514 510 530 520 47 31 80
18 157 -58z m248 -248 l55 -55 -178 -178 -177 -177 -57 58 -58 57 175 175 c96
96 177 175 180 175 3 0 30 -25 60 -55z m240 -240 l55 -55 -178 -178 -177 -177
-57 58 -58 57 175 175 c96 96 177 175 180 175 3 0 30 -25 60 -55z m240 -240
l55 -55 -178 -178 -177 -177 -57 58 -58 57 175 175 c96 96 177 175 180 175 3
0 30 -25 60 -55z m240 -240 l55 -55 -178 -178 -177 -177 -57 58 -58 57 175
175 c96 96 177 175 180 175 3 0 30 -25 60 -55z m-1998 -790 c-131 -133 -205
-216 -220 -247 -82 -169 -17 -367 150 -455 48 -25 63 -28 153 -28 144 0 164
12 405 251 l196 193 297 -297 297 -297 -448 -447 -447 -448 -101 100 c-91 90
-104 100 -138 100 -48 0 -86 -36 -86 -81 0 -26 14 -46 82 -115 45 -46 80 -86
77 -88 -2 -2 -242 -83 -534 -180 l-530 -176 -442 443 -443 442 176 530 c97
292 179 532 181 535 2 2 282 -274 621 -613 374 -374 625 -617 637 -618 64 -4
105 29 105 84 0 28 -63 95 -640 672 l-640 640 448 448 447 447 297 -297 297
-297 -197 -201z m798 310 l115 -115 -365 -365 c-201 -201 -380 -372 -399 -381
-92 -44 -211 19 -227 118 -15 92 -22 83 379 486 204 204 374 372 377 372 3 0
57 -52 120 -115z m-2210 -2210 l175 -175 -110 -110 c-60 -60 -117 -110 -125
-110 -20 0 -340 321 -340 341 0 12 208 229 220 229 3 0 84 -79 180 -175z
m-597 -707 l-298 -298 -57 57 -58 58 297 297 298 298 57 -57 58 -58 -297 -297z"/>
<path d="M1285 2355 c-18 -17 -25 -35 -25 -62 0 -37 16 -54 498 -535 481 -482
498 -498 535 -498 49 0 87 35 87 82 0 30 -43 76 -503 535 -459 460 -505 503
-535 503 -22 0 -41 -8 -57 -25z"/>
<path d="M1282 1877 c-15 -16 -22 -36 -22 -62 0 -37 9 -48 258 -297 252 -253
258 -258 298 -258 52 0 84 31 84 81 0 31 -21 55 -263 297 -245 245 -264 262
-298 262 -24 0 -42 -7 -57 -23z"/>
</g>
</svg>
